<svg xmlns="http://www.w3.org/2000/svg" viewBox="0 0 880 300" width="880" height="300">
<defs>
  <filter id="shadow" x="-20%" y="-20%" width="140%" height="140%">
    <feDropShadow dx="0" dy="1" stdDeviation="2" flood-color="rgba(0,0,0,0.15)"/>
  </filter>
</defs>
<rect width="880" height="300" fill="#F0F2F7" rx="0"/>
<path d="M246.3,64.4 L244.8,43.6 L265.2,48.7 L382.5,46.2 L485.5,50.6 L503.9,49.3 L573.2,53.1 L652.8,54.3 L654.3,52.5 L839.9,53.7 L835.8,80.8 L818.5,86.4 L806.8,107.8 L789.9,103.4 L753.2,125.4 L750.7,114.1 L737.9,121.6 L717.5,147.4 L693.6,153.7 L670.6,171.3 L645.1,172.0 L622.2,188.9 L615.0,207.8 L596.7,210.3 L594.1,237.4 L474.3,238.0 L311.1,236.1 L232.6,236.7 L207.6,236.7 L36.3,236.7 L45.4,233.6 L54.6,213.5 L53.1,185.8 L70.4,166.9 L73.5,149.3 L87.2,143.0 L90.3,121.6 L108.7,92.7 L108.2,64.4 L113.3,64.4 L119.4,64.4 L130.6,63.1 L246.3,64.4 Z" fill="#E2E8F0" stroke="#94A3B8" stroke-width="1.5" filter="url(#shadow)"/>
<line x1="60.4" y1="219.5" x2="365.6" y2="102.8" stroke="#1B5FAA" stroke-width="3.0" stroke-opacity="1.0" stroke-linecap="round"/>
<line x1="365.6" y1="102.8" x2="484.3" y2="102.8" stroke="#1B5FAA" stroke-width="3.0" stroke-opacity="1.0" stroke-linecap="round"/>
<line x1="484.3" y1="102.8" x2="631.2" y2="126.0" stroke="#1B5FAA" stroke-width="3.0" stroke-opacity="1.0" stroke-linecap="round"/>
<line x1="365.6" y1="102.8" x2="502.0" y2="231.0" stroke="#1B5FAA" stroke-width="3.0" stroke-opacity="1.0" stroke-linecap="round"/>
<line x1="484.3" y1="102.8" x2="502.0" y2="231.0" stroke="#1B5FAA" stroke-width="3.0" stroke-opacity="1.0" stroke-linecap="round"/>
<line x1="60.4" y1="219.5" x2="502.0" y2="231.0" stroke="#1B5FAA" stroke-width="2.2" stroke-opacity="0.38" stroke-linecap="round" stroke-dasharray="10,7"/>
<line x1="71.1" y1="222.6" x2="60.4" y2="219.5" stroke="#27803C" stroke-width="1.4" stroke-opacity="0.55"/>
<line x1="62.4" y1="218.1" x2="60.4" y2="219.5" stroke="#27803C" stroke-width="1.4" stroke-opacity="0.55"/>
<line x1="61.7" y1="218.4" x2="60.4" y2="219.5" stroke="#27803C" stroke-width="1.4" stroke-opacity="0.55"/>
<line x1="362.9" y1="104.8" x2="365.6" y2="102.8" stroke="#27803C" stroke-width="1.4" stroke-opacity="0.55"/>
<line x1="363.0" y1="102.1" x2="365.6" y2="102.8" stroke="#27803C" stroke-width="1.4" stroke-opacity="0.55"/>
<line x1="401.2" y1="139.1" x2="365.6" y2="102.8" stroke="#27803C" stroke-width="1.4" stroke-opacity="0.55"/>
<line x1="481.5" y1="102.8" x2="484.3" y2="102.8" stroke="#27803C" stroke-width="1.4" stroke-opacity="0.55"/>
<line x1="776.4" y1="87.2" x2="631.2" y2="126.0" stroke="#27803C" stroke-width="1.4" stroke-opacity="0.55"/>
<line x1="630.6" y1="126.6" x2="631.2" y2="126.0" stroke="#27803C" stroke-width="1.4" stroke-opacity="0.55"/>
<line x1="598.8" y1="120.2" x2="631.2" y2="126.0" stroke="#27803C" stroke-width="1.4" stroke-opacity="0.55"/>
<line x1="496.4" y1="230.7" x2="502.0" y2="231.0" stroke="#27803C" stroke-width="1.4" stroke-opacity="0.55"/>
<circle cx="71.1" cy="222.6" r="5" fill="#27803C" stroke="#1A5C2A" stroke-width="1.4"/>
<circle cx="62.4" cy="218.1" r="5" fill="#27803C" stroke="#1A5C2A" stroke-width="1.4"/>
<circle cx="61.7" cy="218.4" r="5" fill="#27803C" stroke="#1A5C2A" stroke-width="1.4"/>
<circle cx="362.9" cy="104.8" r="5" fill="#27803C" stroke="#1A5C2A" stroke-width="1.4"/>
<circle cx="363.0" cy="102.1" r="5" fill="#27803C" stroke="#1A5C2A" stroke-width="1.4"/>
<circle cx="401.2" cy="139.1" r="5" fill="#27803C" stroke="#1A5C2A" stroke-width="1.4"/>
<circle cx="481.5" cy="102.8" r="5" fill="#27803C" stroke="#1A5C2A" stroke-width="1.4"/>
<circle cx="776.4" cy="87.2" r="5" fill="#27803C" stroke="#1A5C2A" stroke-width="1.4"/>
<circle cx="630.6" cy="126.6" r="5" fill="#27803C" stroke="#1A5C2A" stroke-width="1.4"/>
<circle cx="598.8" cy="120.2" r="5" fill="#27803C" stroke="#1A5C2A" stroke-width="1.4"/>
<circle cx="496.4" cy="230.7" r="5" fill="#27803C" stroke="#1A5C2A" stroke-width="1.4"/>
<text x="67.1" y="213.6" text-anchor="end" font-size="8.5" font-family="system-ui,sans-serif" font-weight="500" fill="#374151">Univ. of Memphis</text>
<text x="70.4" y="215.1" text-anchor="start" font-size="8.5" font-family="system-ui,sans-serif" font-weight="500" fill="#374151">UT Health Sciences</text>
<text x="57.7" y="230.4" text-anchor="end" font-size="8.5" font-family="system-ui,sans-serif" font-weight="500" fill="#374151">St. Jude</text>
<text x="362.9" y="95.8" text-anchor="middle" font-size="8.5" font-family="system-ui,sans-serif" font-weight="500" fill="#374151">Vanderbilt</text>
<text x="355.0" y="115.1" text-anchor="middle" font-size="8.5" font-family="system-ui,sans-serif" font-weight="500" fill="#374151">Tennessee State</text>
<text x="401.2" y="130.1" text-anchor="middle" font-size="8.5" font-family="system-ui,sans-serif" font-weight="500" fill="#374151">MTSU</text>
<text x="481.5" y="93.8" text-anchor="middle" font-size="8.5" font-family="system-ui,sans-serif" font-weight="500" fill="#374151">Tennessee Tech</text>
<text x="776.4" y="78.2" text-anchor="middle" font-size="8.5" font-family="system-ui,sans-serif" font-weight="500" fill="#374151">ETSU</text>
<text x="630.6" y="117.6" text-anchor="middle" font-size="8.5" font-family="system-ui,sans-serif" font-weight="500" fill="#374151">UT Knoxville</text>
<text x="607.8" y="123.2" text-anchor="start" font-size="8.5" font-family="system-ui,sans-serif" font-weight="500" fill="#374151">Oak Ridge Nat. Lab</text>
<text x="505.4" y="233.7" text-anchor="start" font-size="8.5" font-family="system-ui,sans-serif" font-weight="500" fill="#374151">UT Chattanooga</text>
<circle cx="60.4" cy="219.5" r="18" fill="#F59E0B" fill-opacity="0.2"/>
<circle cx="60.4" cy="219.5" r="13" fill="#F59E0B" fill-opacity="0.12"/>
<polygon points="60.4,208.5 63.3,215.5 70.9,216.1 65.2,221.0 66.9,228.4 60.4,224.5 53.9,228.4 55.6,221.0 49.9,216.1 57.5,215.5" fill="#F59E0B" stroke="#b45309" stroke-width="1"/>
<polygon points="365.6,91.8 368.5,98.8 376.1,99.4 370.4,104.3 372.1,111.7 365.6,107.8 359.1,111.7 360.8,104.3 355.1,99.4 362.7,98.8" fill="#F5C518" stroke="#8a6800" stroke-width="1"/>
<polygon points="484.3,91.8 487.2,98.8 494.8,99.4 489.1,104.3 490.8,111.7 484.3,107.8 477.8,111.7 479.5,104.3 473.8,99.4 481.4,98.8" fill="#F5C518" stroke="#8a6800" stroke-width="1"/>
<polygon points="631.2,115.0 634.1,122.0 641.7,122.6 636.0,127.5 637.7,134.9 631.2,131.0 624.7,134.9 626.4,127.5 620.7,122.6 628.3,122.0" fill="#F5C518" stroke="#8a6800" stroke-width="1"/>
<polygon points="502.0,220.0 504.9,227.0 512.5,227.6 506.8,232.5 508.5,239.9 502.0,236.0 495.5,239.9 497.2,232.5 491.5,227.6 499.1,227.0" fill="#F5C518" stroke="#8a6800" stroke-width="1"/>
<text x="60.4" y="239.5" text-anchor="middle" font-size="10.5" font-family="system-ui,sans-serif" font-weight="600" fill="#162040">Memphis</text>
<text x="365.6" y="122.8" text-anchor="middle" font-size="10.5" font-family="system-ui,sans-serif" font-weight="600" fill="#162040">Nashville</text>
<text x="484.3" y="86.8" text-anchor="middle" font-size="10.5" font-family="system-ui,sans-serif" font-weight="600" fill="#162040">Cookeville</text>
<text x="631.2" y="146.0" text-anchor="middle" font-size="10.5" font-family="system-ui,sans-serif" font-weight="600" fill="#162040">Knoxville</text>
<text x="504.0" y="251.0" text-anchor="middle" font-size="10.5" font-family="system-ui,sans-serif" font-weight="600" fill="#162040">Chattanooga</text>
<rect x="694" y="212" width="172" height="76" rx="6" fill="white" fill-opacity="0.85" stroke="#CBD5E1" stroke-width="0.5"/>
<text x="702" y="228" font-size="10" font-family="system-ui,sans-serif" fill="#F5C518" font-weight="600">★</text>
<text x="714" y="228" font-size="9" font-family="system-ui,sans-serif" fill="#4B5563">Hub</text>
<text x="702" y="242" font-size="10" font-family="system-ui,sans-serif" fill="#27803C" font-weight="600">●</text>
<text x="714" y="242" font-size="9" font-family="system-ui,sans-serif" fill="#4B5563">University / Affiliate</text>
<line x1="702" y1="253" x2="716" y2="253" stroke="#1B5FAA" stroke-width="2"/>
<text x="720" y="256" font-size="9" font-family="system-ui,sans-serif" fill="#4B5563">Active backbone</text>
<line x1="702" y1="267" x2="716" y2="267" stroke="#1B5FAA" stroke-width="2" stroke-dasharray="6,4"/>
<text x="720" y="270" font-size="9" font-family="system-ui,sans-serif" fill="#4B5563">Planned</text>
<text x="702" y="284" font-size="10" font-family="system-ui,sans-serif" fill="#F59E0B" font-weight="600">★</text>
<text x="714" y="284" font-size="9" font-family="system-ui,sans-serif" fill="#4B5563">Degraded</text>
</svg>